<svg width="54" height="40" viewBox="0 0 54 40" fill="none" xmlns="http://www.w3.org/2000/svg">
<path d="M52.3229 13.0231C52.7292 12.7047 53.3333 13.0026 53.3333 13.5058V34.5092C53.3333 37.2309 51.0938 39.4391 48.3333 39.4391H5C2.23958 39.4391 0 37.2309 0 34.5092V13.5161C0 13.0026 0.59375 12.715 1.01042 13.0334C3.34375 14.8205 6.4375 17.0903 17.0625 24.7008C19.2604 26.2825 22.9688 29.6101 26.6667 29.5896C30.3854 29.6204 34.1667 26.2208 36.2812 24.7008C46.9062 17.0903 49.9896 14.8102 52.3229 13.0231ZM26.6667 26.2927C29.0833 26.3338 32.5625 23.2937 34.3125 22.0407C48.1354 12.1501 49.1875 11.2874 52.375 8.82244C52.9792 8.36026 53.3333 7.64132 53.3333 6.8813V4.92989C53.3333 2.20818 51.0938 0 48.3333 0H5C2.23958 0 0 2.20818 0 4.92989V6.8813C0 7.64132 0.354167 8.34999 0.958333 8.82244C4.14583 11.2771 5.19792 12.1501 19.0208 22.0407C20.7708 23.2937 24.25 26.3338 26.6667 26.2927Z" fill="black"/>
</svg>
