<svg width="40" height="40" viewBox="0 0 40 40" fill="none" xmlns="http://www.w3.org/2000/svg">
<path d="M37.1429 0H2.84821C1.27679 0 0 1.27649 0 2.84349V36.5956C0 38.1626 1.27679 39.4391 2.84821 39.4391H37.1429C38.7143 39.4391 40 38.1626 40 36.5956V2.84349C40 1.27649 38.7143 0 37.1429 0ZM12.0893 33.8049H6.16071V14.9833H12.0982V33.8049H12.0893ZM9.125 12.4127C7.22321 12.4127 5.6875 10.8898 5.6875 9.02345C5.6875 7.15714 7.22321 5.63415 9.125 5.63415C11.0179 5.63415 12.5625 7.15714 12.5625 9.02345C12.5625 10.8986 11.0268 12.4127 9.125 12.4127ZM34.3125 33.8049H28.3839V24.6494C28.3839 22.4662 28.3393 19.6579 25.3036 19.6579C22.2143 19.6579 21.7411 22.0348 21.7411 24.491V33.8049H15.8125V14.9833H21.5V17.5539H21.5804C22.375 16.0749 24.3125 14.5168 27.1964 14.5168C33.1964 14.5168 34.3125 18.4166 34.3125 23.4874V33.8049Z" fill="black"/>
</svg>
