<svg width="40" height="40" viewBox="0 0 40 40" fill="none" xmlns="http://www.w3.org/2000/svg">
<path d="M35.7143 0H4.28571C1.91964 0 0 1.89272 0 4.22562V35.2135C0 37.5464 1.91964 39.4391 4.28571 39.4391H35.7143C38.0804 39.4391 40 37.5464 40 35.2135V4.22562C40 1.89272 38.0804 0 35.7143 0ZM31.3482 13.9797C31.3661 14.2262 31.3661 14.4815 31.3661 14.728C31.3661 22.3606 25.4732 31.1551 14.7054 31.1551C11.3839 31.1551 8.30357 30.2044 5.71429 28.5669C6.1875 28.6197 6.64286 28.6374 7.125 28.6374C9.86607 28.6374 12.3839 27.7218 14.3929 26.1724C11.8214 26.1196 9.66072 24.4558 8.91964 22.1669C9.82143 22.2989 10.6339 22.2989 11.5625 22.0612C8.88393 21.5242 6.875 19.2001 6.875 16.3919V16.3214C7.65179 16.7528 8.5625 17.0169 9.51786 17.0521C8.71467 16.5254 8.05623 15.8107 7.60131 14.972C7.14639 14.1333 6.90914 13.1966 6.91071 12.2455C6.91071 11.1715 7.19643 10.1855 7.70536 9.33157C10.5893 12.8353 14.9196 15.1242 19.7768 15.3707C18.9464 11.4532 21.9196 8.27516 25.4911 8.27516C27.1786 8.27516 28.6964 8.97063 29.7679 10.0975C31.0893 9.85097 32.3571 9.36678 33.4821 8.70653C33.0446 10.0446 32.125 11.1715 30.9107 11.8845C32.0893 11.7613 33.2321 11.4356 34.2857 10.9866C33.4911 12.1398 32.4911 13.161 31.3482 13.9797Z" fill="black"/>
</svg>
